<?xml version="1.0" encoding="utf-8" standalone="no"?>
<!DOCTYPE svg PUBLIC "-//W3C//DTD SVG 1.1//EN"
  "http://www.w3.org/Graphics/SVG/1.1/DTD/svg11.dtd">
<!-- Created with matplotlib (https://matplotlib.org/) -->
<svg height="720pt" version="1.1" viewBox="0 0 720 720" width="720pt" xmlns="http://www.w3.org/2000/svg" xmlns:xlink="http://www.w3.org/1999/xlink">
 <defs>
  <style type="text/css">
*{stroke-linecap:butt;stroke-linejoin:round;}
  </style>
 </defs>
 <g id="figure_1">
  <g id="patch_1">
   <path d="M 0 720 
L 720 720 
L 720 0 
L 0 0 
z
" style="fill:#ffffff;"/>
  </g>
  <g id="axes_1">
   <g id="patch_2">
    <path d="M 369 630 
C 441.082203 630 510.221809 601.361437 561.191623 550.391623 
C 612.161437 499.421809 640.8 430.282203 640.8 358.2 
C 640.8 286.117797 612.161437 216.978191 561.191623 166.008377 
C 510.221809 115.038563 441.082203 86.4 369 86.4 
C 296.917797 86.4 227.778191 115.038563 176.808377 166.008377 
C 125.838563 216.978191 97.2 286.117797 97.2 358.2 
C 97.2 430.282203 125.838563 499.421809 176.808377 550.391623 
C 227.778191 601.361437 296.917797 630 369 630 
z
" style="fill:#ffffff;"/>
   </g>
   <g id="matplotlib.axis_1">
    <g id="xtick_1">
     <g id="line2d_1">
      <path clip-path="url(#pa7007c3de7)" d="M 340.76355 568.95973 
L 336.488424 570.88115 
L 332.079368 572.6506 
L 327.531239 574.259632 
L 322.838579 575.698986 
L 317.995622 576.958483 
L 312.996298 578.026909 
L 307.834247 578.891879 
L 302.502848 579.539692 
L 296.995258 579.955158 
L 291.304476 580.121416 
L 285.423427 580.019718 
L 279.345082 579.629207 
L 273.062622 578.926658 
L 266.569646 577.886212 
L 259.860456 576.479088 
L 252.930411 574.673286 
L 245.776393 572.433295 
L 238.397386 569.719822 
L 230.795209 566.48956 
L 222.975403 562.695047 
L 214.94833 558.284648 
L 206.730464 553.202748 
L 198.345907 547.390217 
L 189.828103 540.785283 
L 181.221703 533.324916 
L 172.584489 524.946876 
L 163.989192 515.592552 
L 155.524966 505.210698 
L 147.298189 493.762092 
L 139.432179 481.225025 
L 132.065385 467.601332 
L 125.347645 452.92244 
L 119.434255 437.254662 
L 114.477898 420.702769 
L 110.618905 403.410833 
L 107.9748 385.559502 
L 106.630468 367.359354 
L 106.630468 349.040646 
L 107.9748 330.840498 
L 110.618905 312.989167 
L 114.477898 295.697231 
L 119.434255 279.145338 
L 125.347645 263.47756 
L 132.065385 248.798668 
L 139.432179 235.174975 
L 147.298189 222.637908 
L 155.524966 211.189302 
L 163.989192 200.807448 
L 172.584489 191.453124 
L 181.221703 183.075084 
L 189.828103 175.614717 
L 198.345907 169.009783 
L 206.730464 163.197252 
L 214.94833 158.115352 
L 222.975403 153.704953 
L 230.795209 149.91044 
L 238.397386 146.680178 
L 245.776393 143.966705 
L 252.930411 141.726714 
L 259.860456 139.920912 
L 266.569646 138.513788 
L 273.062622 137.473342 
L 279.345082 136.770793 
L 285.423427 136.380282 
L 291.304476 136.278584 
L 296.995258 136.444842 
L 302.502848 136.860308 
L 307.834247 137.508121 
L 312.996298 138.373091 
L 317.995622 139.441517 
L 322.838579 140.701014 
L 327.531239 142.140368 
L 332.079368 143.7494 
L 336.488424 145.51885 
L 340.76355 147.44027 
" style="fill:none;stroke:#b0b0b0;stroke-linecap:square;stroke-width:0.8;"/>
     </g>
     <g id="text_1">
      <!-- -150° -->
      <defs>
       <path d="M 4.890625 31.390625 
L 31.203125 31.390625 
L 31.203125 23.390625 
L 4.890625 23.390625 
z
" id="DejaVuSans-45"/>
       <path d="M 12.40625 8.296875 
L 28.515625 8.296875 
L 28.515625 63.921875 
L 10.984375 60.40625 
L 10.984375 69.390625 
L 28.421875 72.90625 
L 38.28125 72.90625 
L 38.28125 8.296875 
L 54.390625 8.296875 
L 54.390625 0 
L 12.40625 0 
z
" id="DejaVuSans-49"/>
       <path d="M 10.796875 72.90625 
L 49.515625 72.90625 
L 49.515625 64.59375 
L 19.828125 64.59375 
L 19.828125 46.734375 
Q 21.96875 47.46875 24.109375 47.828125 
Q 26.265625 48.1875 28.421875 48.1875 
Q 40.625 48.1875 47.75 41.5 
Q 54.890625 34.8125 54.890625 23.390625 
Q 54.890625 11.625 47.5625 5.09375 
Q 40.234375 -1.421875 26.90625 -1.421875 
Q 22.3125 -1.421875 17.546875 -0.640625 
Q 12.796875 0.140625 7.71875 1.703125 
L 7.71875 11.625 
Q 12.109375 9.234375 16.796875 8.0625 
Q 21.484375 6.890625 26.703125 6.890625 
Q 35.15625 6.890625 40.078125 11.328125 
Q 45.015625 15.765625 45.015625 23.390625 
Q 45.015625 31 40.078125 35.4375 
Q 35.15625 39.890625 26.703125 39.890625 
Q 22.75 39.890625 18.8125 39.015625 
Q 14.890625 38.140625 10.796875 36.28125 
z
" id="DejaVuSans-53"/>
       <path d="M 31.78125 66.40625 
Q 24.171875 66.40625 20.328125 58.90625 
Q 16.5 51.421875 16.5 36.375 
Q 16.5 21.390625 20.328125 13.890625 
Q 24.171875 6.390625 31.78125 6.390625 
Q 39.453125 6.390625 43.28125 13.890625 
Q 47.125 21.390625 47.125 36.375 
Q 47.125 51.421875 43.28125 58.90625 
Q 39.453125 66.40625 31.78125 66.40625 
z
M 31.78125 74.21875 
Q 44.046875 74.21875 50.515625 64.515625 
Q 56.984375 54.828125 56.984375 36.375 
Q 56.984375 17.96875 50.515625 8.265625 
Q 44.046875 -1.421875 31.78125 -1.421875 
Q 19.53125 -1.421875 13.0625 8.265625 
Q 6.59375 17.96875 6.59375 36.375 
Q 6.59375 54.828125 13.0625 64.515625 
Q 19.53125 74.21875 31.78125 74.21875 
z
" id="DejaVuSans-48"/>
       <path d="M 25 67.921875 
Q 21.09375 67.921875 18.40625 65.203125 
Q 15.71875 62.5 15.71875 58.59375 
Q 15.71875 54.734375 18.40625 52.078125 
Q 21.09375 49.421875 25 49.421875 
Q 28.90625 49.421875 31.59375 52.078125 
Q 34.28125 54.734375 34.28125 58.59375 
Q 34.28125 62.453125 31.5625 65.1875 
Q 28.859375 67.921875 25 67.921875 
z
M 25 74.21875 
Q 28.125 74.21875 31 73.015625 
Q 33.890625 71.828125 35.984375 69.578125 
Q 38.234375 67.390625 39.359375 64.59375 
Q 40.484375 61.8125 40.484375 58.59375 
Q 40.484375 52.15625 35.96875 47.6875 
Q 31.453125 43.21875 24.90625 43.21875 
Q 18.3125 43.21875 13.90625 47.609375 
Q 9.515625 52 9.515625 58.59375 
Q 9.515625 65.140625 14 69.671875 
Q 18.5 74.21875 25 74.21875 
z
" id="DejaVuSans-176"/>
      </defs>
      <g transform="translate(92.613704 352.120313)scale(0.1 -0.1)">
       <use xlink:href="#DejaVuSans-45"/>
       <use x="36.083984" xlink:href="#DejaVuSans-49"/>
       <use x="99.707031" xlink:href="#DejaVuSans-53"/>
       <use x="163.330078" xlink:href="#DejaVuSans-48"/>
       <use x="226.953125" xlink:href="#DejaVuSans-176"/>
      </g>
     </g>
    </g>
    <g id="xtick_2">
     <g id="line2d_2">
      <path clip-path="url(#pa7007c3de7)" d="M 322.830586 557.162522 
L 316.335404 557.106556 
L 309.777292 556.802989 
L 303.162803 556.244725 
L 296.499034 555.424666 
L 289.793661 554.33575 
L 283.05497 552.970984 
L 276.291893 551.323494 
L 269.514048 549.386573 
L 262.73176 547.15374 
L 255.9561 544.618805 
L 249.198903 541.775937 
L 242.472796 538.619748 
L 235.791204 535.145376 
L 229.168364 531.348583 
L 222.619321 527.225849 
L 216.159915 522.774485 
L 209.806759 517.992741 
L 203.5772 512.879922 
L 197.489266 507.436509 
L 191.5616 501.664273 
L 185.813371 495.566395 
L 180.264172 489.147575 
L 174.933895 482.414138 
L 169.842589 475.374126 
L 165.010302 468.037377 
L 160.456903 460.415585 
L 156.201889 452.522339 
L 152.264185 444.373137 
L 148.661927 435.985373 
L 145.412244 427.378292 
L 142.531047 418.572914 
L 140.032806 409.591927 
L 137.930358 400.459541 
L 136.234713 391.201322 
L 134.954892 381.843987 
L 134.097791 372.415176 
L 133.668066 362.943203 
L 133.668066 353.456797 
L 134.097791 343.984824 
L 134.954892 334.556013 
L 136.234713 325.198678 
L 137.930358 315.940459 
L 140.032806 306.808073 
L 142.531047 297.827086 
L 145.412244 289.021708 
L 148.661927 280.414627 
L 152.264185 272.026863 
L 156.201889 263.877661 
L 160.456903 255.984415 
L 165.010302 248.362623 
L 169.842589 241.025874 
L 174.933895 233.985862 
L 180.264172 227.252425 
L 185.813371 220.833605 
L 191.5616 214.735727 
L 197.489266 208.963491 
L 203.5772 203.520078 
L 209.806759 198.407259 
L 216.159915 193.625515 
L 222.619321 189.174151 
L 229.168364 185.051417 
L 235.791204 181.254624 
L 242.472796 177.780252 
L 249.198903 174.624063 
L 255.9561 171.781195 
L 262.73176 169.24626 
L 269.514048 167.013427 
L 276.291893 165.076506 
L 283.05497 163.429016 
L 289.793661 162.06425 
L 296.499034 160.975334 
L 303.162803 160.155275 
L 309.777292 159.597011 
L 316.335404 159.293444 
L 322.830586 159.237478 
" style="fill:none;stroke:#b0b0b0;stroke-linecap:square;stroke-width:0.8;"/>
     </g>
     <g id="text_2">
      <!-- -120° -->
      <defs>
       <path d="M 19.1875 8.296875 
L 53.609375 8.296875 
L 53.609375 0 
L 7.328125 0 
L 7.328125 8.296875 
Q 12.9375 14.109375 22.625 23.890625 
Q 32.328125 33.6875 34.8125 36.53125 
Q 39.546875 41.84375 41.421875 45.53125 
Q 43.3125 49.21875 43.3125 52.78125 
Q 43.3125 58.59375 39.234375 62.25 
Q 35.15625 65.921875 28.609375 65.921875 
Q 23.96875 65.921875 18.8125 64.3125 
Q 13.671875 62.703125 7.8125 59.421875 
L 7.8125 69.390625 
Q 13.765625 71.78125 18.9375 73 
Q 24.125 74.21875 28.421875 74.21875 
Q 39.75 74.21875 46.484375 68.546875 
Q 53.21875 62.890625 53.21875 53.421875 
Q 53.21875 48.921875 51.53125 44.890625 
Q 49.859375 40.875 45.40625 35.40625 
Q 44.1875 33.984375 37.640625 27.21875 
Q 31.109375 20.453125 19.1875 8.296875 
z
" id="DejaVuSans-50"/>
      </defs>
      <g transform="translate(119.766639 352.120313)scale(0.1 -0.1)">
       <use xlink:href="#DejaVuSans-45"/>
       <use x="36.083984" xlink:href="#DejaVuSans-49"/>
       <use x="99.707031" xlink:href="#DejaVuSans-50"/>
       <use x="163.330078" xlink:href="#DejaVuSans-48"/>
       <use x="226.953125" xlink:href="#DejaVuSans-176"/>
      </g>
     </g>
    </g>
    <g id="xtick_3">
     <g id="line2d_3">
      <path clip-path="url(#pa7007c3de7)" d="M 319.257148 543.842852 
L 312.808608 541.993763 
L 306.428528 539.92075 
L 300.124682 537.626337 
L 293.90475 535.113322 
L 287.77631 532.384765 
L 281.746829 529.44399 
L 275.823652 526.294581 
L 270.013996 522.940375 
L 264.32494 519.385458 
L 258.763414 515.634161 
L 253.336194 511.691055 
L 248.049893 507.560944 
L 242.91095 503.248859 
L 237.925628 498.760055 
L 233.1 494.1 
L 228.439945 489.274372 
L 223.951141 484.28905 
L 219.639056 479.150107 
L 215.508945 473.863806 
L 211.565839 468.436586 
L 207.814542 462.87506 
L 204.259625 457.186004 
L 200.905419 451.376348 
L 197.75601 445.453171 
L 194.815235 439.42369 
L 192.086678 433.29525 
L 189.573663 427.075318 
L 187.27925 420.771472 
L 185.206237 414.391392 
L 183.357148 407.942852 
L 181.734236 401.433708 
L 180.339478 394.871891 
L 179.174575 388.265394 
L 178.240944 381.622267 
L 177.539724 374.950604 
L 177.071769 368.258532 
L 176.837649 361.554206 
L 176.837649 354.845794 
L 177.071769 348.141468 
L 177.539724 341.449396 
L 178.240944 334.777733 
L 179.174575 328.134606 
L 180.339478 321.528109 
L 181.734236 314.966292 
L 183.357148 308.457148 
L 185.206237 302.008608 
L 187.27925 295.628528 
L 189.573663 289.324682 
L 192.086678 283.10475 
L 194.815235 276.97631 
L 197.75601 270.946829 
L 200.905419 265.023652 
L 204.259625 259.213996 
L 207.814542 253.52494 
L 211.565839 247.963414 
L 215.508945 242.536194 
L 219.639056 237.249893 
L 223.951141 232.11095 
L 228.439945 227.125628 
L 233.1 222.3 
L 237.925628 217.639945 
L 242.91095 213.151141 
L 248.049893 208.839056 
L 253.336194 204.708945 
L 258.763414 200.765839 
L 264.32494 197.014542 
L 270.013996 193.459625 
L 275.823652 190.105419 
L 281.746829 186.95601 
L 287.77631 184.015235 
L 293.90475 181.286678 
L 300.124682 178.773663 
L 306.428528 176.47925 
L 312.808608 174.406237 
L 319.257148 172.557148 
" style="fill:none;stroke:#b0b0b0;stroke-linecap:square;stroke-width:0.8;"/>
     </g>
     <g id="text_3">
      <!-- -90° -->
      <defs>
       <path d="M 10.984375 1.515625 
L 10.984375 10.5 
Q 14.703125 8.734375 18.5 7.8125 
Q 22.3125 6.890625 25.984375 6.890625 
Q 35.75 6.890625 40.890625 13.453125 
Q 46.046875 20.015625 46.78125 33.40625 
Q 43.953125 29.203125 39.59375 26.953125 
Q 35.25 24.703125 29.984375 24.703125 
Q 19.046875 24.703125 12.671875 31.3125 
Q 6.296875 37.9375 6.296875 49.421875 
Q 6.296875 60.640625 12.9375 67.421875 
Q 19.578125 74.21875 30.609375 74.21875 
Q 43.265625 74.21875 49.921875 64.515625 
Q 56.59375 54.828125 56.59375 36.375 
Q 56.59375 19.140625 48.40625 8.859375 
Q 40.234375 -1.421875 26.421875 -1.421875 
Q 22.703125 -1.421875 18.890625 -0.6875 
Q 15.09375 0.046875 10.984375 1.515625 
z
M 30.609375 32.421875 
Q 37.25 32.421875 41.125 36.953125 
Q 45.015625 41.5 45.015625 49.421875 
Q 45.015625 57.28125 41.125 61.84375 
Q 37.25 66.40625 30.609375 66.40625 
Q 23.96875 66.40625 20.09375 61.84375 
Q 16.21875 57.28125 16.21875 49.421875 
Q 16.21875 41.5 20.09375 36.953125 
Q 23.96875 32.421875 30.609375 32.421875 
z
" id="DejaVuSans-57"/>
      </defs>
      <g transform="translate(166.141971 352.120313)scale(0.1 -0.1)">
       <use xlink:href="#DejaVuSans-45"/>
       <use x="36.083984" xlink:href="#DejaVuSans-57"/>
       <use x="99.707031" xlink:href="#DejaVuSans-48"/>
       <use x="163.330078" xlink:href="#DejaVuSans-176"/>
      </g>
     </g>
    </g>
    <g id="xtick_4">
     <g id="line2d_4">
      <path clip-path="url(#pa7007c3de7)" d="M 328.464494 532.883751 
L 323.545917 529.873495 
L 318.747524 526.72137 
L 314.070776 523.432475 
L 309.517019 520.011792 
L 305.087493 516.464194 
L 300.783347 512.79445 
L 296.605637 509.007226 
L 292.555343 505.107093 
L 288.63337 501.09853 
L 284.840558 496.985929 
L 281.177681 492.773597 
L 277.64546 488.465764 
L 274.244563 484.066586 
L 270.975607 479.580148 
L 267.839168 475.010467 
L 264.835778 470.361501 
L 261.965931 465.637145 
L 259.230086 460.841243 
L 256.628668 455.977585 
L 254.16207 451.049914 
L 251.830659 446.061926 
L 249.634769 441.017278 
L 247.574712 435.919587 
L 245.650773 430.772433 
L 243.863215 425.579364 
L 242.212277 420.343899 
L 240.698178 415.069527 
L 239.321115 409.759713 
L 238.081265 404.417898 
L 236.978787 399.047506 
L 236.013818 393.651938 
L 235.186481 388.234584 
L 234.496878 382.798818 
L 233.945094 377.348003 
L 233.531197 371.885493 
L 233.255237 366.414634 
L 233.117249 360.938768 
L 233.117249 355.461232 
L 233.255237 349.985366 
L 233.531197 344.514507 
L 233.945094 339.051997 
L 234.496878 333.601182 
L 235.186481 328.165416 
L 236.013818 322.748062 
L 236.978787 317.352494 
L 238.081265 311.982102 
L 239.321115 306.640287 
L 240.698178 301.330473 
L 242.212277 296.056101 
L 243.863215 290.820636 
L 245.650773 285.627567 
L 247.574712 280.480413 
L 249.634769 275.382722 
L 251.830659 270.338074 
L 254.16207 265.350086 
L 256.628668 260.422415 
L 259.230086 255.558757 
L 261.965931 250.762855 
L 264.835778 246.038499 
L 267.839168 241.389533 
L 270.975607 236.819852 
L 274.244563 232.333414 
L 277.64546 227.934236 
L 281.177681 223.626403 
L 284.840558 219.414071 
L 288.63337 215.30147 
L 292.555343 211.292907 
L 296.605637 207.392774 
L 300.783347 203.60555 
L 305.087493 199.935806 
L 309.517019 196.388208 
L 314.070776 192.967525 
L 318.747524 189.67863 
L 323.545917 186.526505 
L 328.464494 183.516249 
" style="fill:none;stroke:#b0b0b0;stroke-linecap:square;stroke-width:0.8;"/>
     </g>
     <g id="text_4">
      <!-- -60° -->
      <defs>
       <path d="M 33.015625 40.375 
Q 26.375 40.375 22.484375 35.828125 
Q 18.609375 31.296875 18.609375 23.390625 
Q 18.609375 15.53125 22.484375 10.953125 
Q 26.375 6.390625 33.015625 6.390625 
Q 39.65625 6.390625 43.53125 10.953125 
Q 47.40625 15.53125 47.40625 23.390625 
Q 47.40625 31.296875 43.53125 35.828125 
Q 39.65625 40.375 33.015625 40.375 
z
M 52.59375 71.296875 
L 52.59375 62.3125 
Q 48.875 64.0625 45.09375 64.984375 
Q 41.3125 65.921875 37.59375 65.921875 
Q 27.828125 65.921875 22.671875 59.328125 
Q 17.53125 52.734375 16.796875 39.40625 
Q 19.671875 43.65625 24.015625 45.921875 
Q 28.375 48.1875 33.59375 48.1875 
Q 44.578125 48.1875 50.953125 41.515625 
Q 57.328125 34.859375 57.328125 23.390625 
Q 57.328125 12.15625 50.6875 5.359375 
Q 44.046875 -1.421875 33.015625 -1.421875 
Q 20.359375 -1.421875 13.671875 8.265625 
Q 6.984375 17.96875 6.984375 36.375 
Q 6.984375 53.65625 15.1875 63.9375 
Q 23.390625 74.21875 37.203125 74.21875 
Q 40.921875 74.21875 44.703125 73.484375 
Q 48.484375 72.75 52.59375 71.296875 
z
" id="DejaVuSans-54"/>
      </defs>
      <g transform="translate(222.433594 352.120313)scale(0.1 -0.1)">
       <use xlink:href="#DejaVuSans-45"/>
       <use x="36.083984" xlink:href="#DejaVuSans-54"/>
       <use x="99.707031" xlink:href="#DejaVuSans-48"/>
       <use x="163.330078" xlink:href="#DejaVuSans-176"/>
      </g>
     </g>
    </g>
    <g id="xtick_5">
     <g id="line2d_5">
      <path clip-path="url(#pa7007c3de7)" d="M 346.520613 525.988427 
L 343.902563 522.380036 
L 341.368098 518.697742 
L 338.915762 514.944237 
L 336.544205 511.122123 
L 334.252172 507.233915 
L 332.0385 503.282056 
L 329.90211 499.26892 
L 327.842003 495.196821 
L 325.85725 491.068018 
L 323.946994 486.884721 
L 322.110439 482.649098 
L 320.346849 478.363276 
L 318.655542 474.029347 
L 317.03589 469.64937 
L 315.487311 465.225379 
L 314.009266 460.759378 
L 312.601261 456.253352 
L 311.262838 451.709263 
L 309.993579 447.129056 
L 308.793095 442.514658 
L 307.661032 437.867983 
L 306.597065 433.190932 
L 305.600898 428.485392 
L 304.672258 423.753243 
L 303.810901 418.996353 
L 303.016601 414.216582 
L 302.289159 409.415785 
L 301.628393 404.595809 
L 301.034143 399.758496 
L 300.506266 394.905681 
L 300.044638 390.039199 
L 299.649151 385.160879 
L 299.319715 380.272546 
L 299.056255 375.376024 
L 298.858711 370.473135 
L 298.72704 365.5657 
L 298.661212 360.655536 
L 298.661212 355.744464 
L 298.72704 350.8343 
L 298.858711 345.926865 
L 299.056255 341.023976 
L 299.319715 336.127454 
L 299.649151 331.239121 
L 300.044638 326.360801 
L 300.506266 321.494319 
L 301.034143 316.641504 
L 301.628393 311.804191 
L 302.289159 306.984215 
L 303.016601 302.183418 
L 303.810901 297.403647 
L 304.672258 292.646757 
L 305.600898 287.914608 
L 306.597065 283.209068 
L 307.661032 278.532017 
L 308.793095 273.885342 
L 309.993579 269.270944 
L 311.262838 264.690737 
L 312.601261 260.146648 
L 314.009266 255.640622 
L 315.487311 251.174621 
L 317.03589 246.75063 
L 318.655542 242.370653 
L 320.346849 238.036724 
L 322.110439 233.750902 
L 323.946994 229.515279 
L 325.85725 225.331982 
L 327.842003 221.203179 
L 329.90211 217.13108 
L 332.0385 213.117944 
L 334.252172 209.166085 
L 336.544205 205.277877 
L 338.915762 201.455763 
L 341.368098 197.702258 
L 343.902563 194.019964 
L 346.520613 190.411573 
" style="fill:none;stroke:#b0b0b0;stroke-linecap:square;stroke-width:0.8;"/>
     </g>
     <g id="text_5">
      <!-- -30° -->
      <defs>
       <path d="M 40.578125 39.3125 
Q 47.65625 37.796875 51.625 33 
Q 55.609375 28.21875 55.609375 21.1875 
Q 55.609375 10.40625 48.1875 4.484375 
Q 40.765625 -1.421875 27.09375 -1.421875 
Q 22.515625 -1.421875 17.65625 -0.515625 
Q 12.796875 0.390625 7.625 2.203125 
L 7.625 11.71875 
Q 11.71875 9.328125 16.59375 8.109375 
Q 21.484375 6.890625 26.8125 6.890625 
Q 36.078125 6.890625 40.9375 10.546875 
Q 45.796875 14.203125 45.796875 21.1875 
Q 45.796875 27.640625 41.28125 31.265625 
Q 36.765625 34.90625 28.71875 34.90625 
L 20.21875 34.90625 
L 20.21875 43.015625 
L 29.109375 43.015625 
Q 36.375 43.015625 40.234375 45.921875 
Q 44.09375 48.828125 44.09375 54.296875 
Q 44.09375 59.90625 40.109375 62.90625 
Q 36.140625 65.921875 28.71875 65.921875 
Q 24.65625 65.921875 20.015625 65.03125 
Q 15.375 64.15625 9.8125 62.3125 
L 9.8125 71.09375 
Q 15.4375 72.65625 20.34375 73.4375 
Q 25.25 74.21875 29.59375 74.21875 
Q 40.828125 74.21875 47.359375 69.109375 
Q 53.90625 64.015625 53.90625 55.328125 
Q 53.90625 49.265625 50.4375 45.09375 
Q 46.96875 40.921875 40.578125 39.3125 
z
" id="DejaVuSans-51"/>
      </defs>
      <g transform="translate(287.986577 352.120313)scale(0.1 -0.1)">
       <use xlink:href="#DejaVuSans-45"/>
       <use x="36.083984" xlink:href="#DejaVuSans-51"/>
       <use x="99.707031" xlink:href="#DejaVuSans-48"/>
       <use x="163.330078" xlink:href="#DejaVuSans-176"/>
      </g>
     </g>
    </g>
    <g id="xtick_6">
     <g id="line2d_6">
      <path clip-path="url(#pa7007c3de7)" d="M 369 523.661356 
L 369 519.872833 
L 369 516.035063 
L 369 512.149215 
L 369 508.216473 
L 369 504.238034 
L 369 500.21511 
L 369 496.148927 
L 369 492.040724 
L 369 487.891751 
L 369 483.703273 
L 369 479.476566 
L 369 475.212916 
L 369 470.913623 
L 369 466.579997 
L 369 462.213357 
L 369 457.815033 
L 369 453.386366 
L 369 448.928704 
L 369 444.443406 
L 369 439.931836 
L 369 435.395371 
L 369 430.835391 
L 369 426.253285 
L 369 421.65045 
L 369 417.028287 
L 369 412.388205 
L 369 407.731616 
L 369 403.059939 
L 369 398.374598 
L 369 393.677019 
L 369 388.968634 
L 369 384.250876 
L 369 379.525182 
L 369 374.792993 
L 369 370.055749 
L 369 365.314895 
L 369 360.571872 
L 369 355.828128 
L 369 351.085105 
L 369 346.344251 
L 369 341.607007 
L 369 336.874818 
L 369 332.149124 
L 369 327.431366 
L 369 322.722981 
L 369 318.025402 
L 369 313.340061 
L 369 308.668384 
L 369 304.011795 
L 369 299.371713 
L 369 294.74955 
L 369 290.146715 
L 369 285.564609 
L 369 281.004629 
L 369 276.468164 
L 369 271.956594 
L 369 267.471296 
L 369 263.013634 
L 369 258.584967 
L 369 254.186643 
L 369 249.820003 
L 369 245.486377 
L 369 241.187084 
L 369 236.923434 
L 369 232.696727 
L 369 228.508249 
L 369 224.359276 
L 369 220.251073 
L 369 216.18489 
L 369 212.161966 
L 369 208.183527 
L 369 204.250785 
L 369 200.364937 
L 369 196.527167 
L 369 192.738644 
" style="fill:none;stroke:#b0b0b0;stroke-linecap:square;stroke-width:0.8;"/>
     </g>
     <g id="text_6">
      <!-- 0° -->
      <g transform="translate(363.31875 352.120313)scale(0.1 -0.1)">
       <use xlink:href="#DejaVuSans-48"/>
       <use x="63.623047" xlink:href="#DejaVuSans-176"/>
      </g>
     </g>
    </g>
    <g id="xtick_7">
     <g id="line2d_7">
      <path clip-path="url(#pa7007c3de7)" d="M 391.479387 525.988427 
L 394.097437 522.380036 
L 396.631902 518.697742 
L 399.084238 514.944237 
L 401.455795 511.122123 
L 403.747828 507.233915 
L 405.9615 503.282056 
L 408.09789 499.26892 
L 410.157997 495.196821 
L 412.14275 491.068018 
L 414.053006 486.884721 
L 415.889561 482.649098 
L 417.653151 478.363276 
L 419.344458 474.029347 
L 420.96411 469.64937 
L 422.512689 465.225379 
L 423.990734 460.759378 
L 425.398739 456.253352 
L 426.737162 451.709263 
L 428.006421 447.129056 
L 429.206905 442.514658 
L 430.338968 437.867983 
L 431.402935 433.190932 
L 432.399102 428.485392 
L 433.327742 423.753243 
L 434.189099 418.996353 
L 434.983399 414.216582 
L 435.710841 409.415785 
L 436.371607 404.595809 
L 436.965857 399.758496 
L 437.493734 394.905681 
L 437.955362 390.039199 
L 438.350849 385.160879 
L 438.680285 380.272546 
L 438.943745 375.376024 
L 439.141289 370.473135 
L 439.27296 365.5657 
L 439.338788 360.655536 
L 439.338788 355.744464 
L 439.27296 350.8343 
L 439.141289 345.926865 
L 438.943745 341.023976 
L 438.680285 336.127454 
L 438.350849 331.239121 
L 437.955362 326.360801 
L 437.493734 321.494319 
L 436.965857 316.641504 
L 436.371607 311.804191 
L 435.710841 306.984215 
L 434.983399 302.183418 
L 434.189099 297.403647 
L 433.327742 292.646757 
L 432.399102 287.914608 
L 431.402935 283.209068 
L 430.338968 278.532017 
L 429.206905 273.885342 
L 428.006421 269.270944 
L 426.737162 264.690737 
L 425.398739 260.146648 
L 423.990734 255.640622 
L 422.512689 251.174621 
L 420.96411 246.75063 
L 419.344458 242.370653 
L 417.653151 238.036724 
L 415.889561 233.750902 
L 414.053006 229.515279 
L 412.14275 225.331982 
L 410.157997 221.203179 
L 408.09789 217.13108 
L 405.9615 213.117944 
L 403.747828 209.166085 
L 401.455795 205.277877 
L 399.084238 201.455763 
L 396.631902 197.702258 
L 394.097437 194.019964 
L 391.479387 190.411573 
" style="fill:none;stroke:#b0b0b0;stroke-linecap:square;stroke-width:0.8;"/>
     </g>
     <g id="text_7">
      <!-- 30° -->
      <g transform="translate(430.484516 352.120313)scale(0.1 -0.1)">
       <use xlink:href="#DejaVuSans-51"/>
       <use x="63.623047" xlink:href="#DejaVuSans-48"/>
       <use x="127.246094" xlink:href="#DejaVuSans-176"/>
      </g>
     </g>
    </g>
    <g id="xtick_8">
     <g id="line2d_8">
      <path clip-path="url(#pa7007c3de7)" d="M 409.535506 532.883751 
L 414.454083 529.873495 
L 419.252476 526.72137 
L 423.929224 523.432475 
L 428.482981 520.011792 
L 432.912507 516.464194 
L 437.216653 512.79445 
L 441.394363 509.007226 
L 445.444657 505.107093 
L 449.36663 501.09853 
L 453.159442 496.985929 
L 456.822319 492.773597 
L 460.35454 488.465764 
L 463.755437 484.066586 
L 467.024393 479.580148 
L 470.160832 475.010467 
L 473.164222 470.361501 
L 476.034069 465.637145 
L 478.769914 460.841243 
L 481.371332 455.977585 
L 483.83793 451.049914 
L 486.169341 446.061926 
L 488.365231 441.017278 
L 490.425288 435.919587 
L 492.349227 430.772433 
L 494.136785 425.579364 
L 495.787723 420.343899 
L 497.301822 415.069527 
L 498.678885 409.759713 
L 499.918735 404.417898 
L 501.021213 399.047506 
L 501.986182 393.651938 
L 502.813519 388.234584 
L 503.503122 382.798818 
L 504.054906 377.348003 
L 504.468803 371.885493 
L 504.744763 366.414634 
L 504.882751 360.938768 
L 504.882751 355.461232 
L 504.744763 349.985366 
L 504.468803 344.514507 
L 504.054906 339.051997 
L 503.503122 333.601182 
L 502.813519 328.165416 
L 501.986182 322.748062 
L 501.021213 317.352494 
L 499.918735 311.982102 
L 498.678885 306.640287 
L 497.301822 301.330473 
L 495.787723 296.056101 
L 494.136785 290.820636 
L 492.349227 285.627567 
L 490.425288 280.480413 
L 488.365231 275.382722 
L 486.169341 270.338074 
L 483.83793 265.350086 
L 481.371332 260.422415 
L 478.769914 255.558757 
L 476.034069 250.762855 
L 473.164222 246.038499 
L 470.160832 241.389533 
L 467.024393 236.819852 
L 463.755437 232.333414 
L 460.35454 227.934236 
L 456.822319 223.626403 
L 453.159442 219.414071 
L 449.36663 215.30147 
L 445.444657 211.292907 
L 441.394363 207.392774 
L 437.216653 203.60555 
L 432.912507 199.935806 
L 428.482981 196.388208 
L 423.929224 192.967525 
L 419.252476 189.67863 
L 414.454083 186.526505 
L 409.535506 183.516249 
" style="fill:none;stroke:#b0b0b0;stroke-linecap:square;stroke-width:0.8;"/>
     </g>
     <g id="text_8">
      <!-- 60° -->
      <g transform="translate(496.0375 352.120313)scale(0.1 -0.1)">
       <use xlink:href="#DejaVuSans-54"/>
       <use x="63.623047" xlink:href="#DejaVuSans-48"/>
       <use x="127.246094" xlink:href="#DejaVuSans-176"/>
      </g>
     </g>
    </g>
    <g id="xtick_9">
     <g id="line2d_9">
      <path clip-path="url(#pa7007c3de7)" d="M 418.742852 543.842852 
L 425.191392 541.993763 
L 431.571472 539.92075 
L 437.875318 537.626337 
L 444.09525 535.113322 
L 450.22369 532.384765 
L 456.253171 529.44399 
L 462.176348 526.294581 
L 467.986004 522.940375 
L 473.67506 519.385458 
L 479.236586 515.634161 
L 484.663806 511.691055 
L 489.950107 507.560944 
L 495.08905 503.248859 
L 500.074372 498.760055 
L 504.9 494.1 
L 509.560055 489.274372 
L 514.048859 484.28905 
L 518.360944 479.150107 
L 522.491055 473.863806 
L 526.434161 468.436586 
L 530.185458 462.87506 
L 533.740375 457.186004 
L 537.094581 451.376348 
L 540.24399 445.453171 
L 543.184765 439.42369 
L 545.913322 433.29525 
L 548.426337 427.075318 
L 550.72075 420.771472 
L 552.793763 414.391392 
L 554.642852 407.942852 
L 556.265764 401.433708 
L 557.660522 394.871891 
L 558.825425 388.265394 
L 559.759056 381.622267 
L 560.460276 374.950604 
L 560.928231 368.258532 
L 561.162351 361.554206 
L 561.162351 354.845794 
L 560.928231 348.141468 
L 560.460276 341.449396 
L 559.759056 334.777733 
L 558.825425 328.134606 
L 557.660522 321.528109 
L 556.265764 314.966292 
L 554.642852 308.457148 
L 552.793763 302.008608 
L 550.72075 295.628528 
L 548.426337 289.324682 
L 545.913322 283.10475 
L 543.184765 276.97631 
L 540.24399 270.946829 
L 537.094581 265.023652 
L 533.740375 259.213996 
L 530.185458 253.52494 
L 526.434161 247.963414 
L 522.491055 242.536194 
L 518.360944 237.249893 
L 514.048859 232.11095 
L 509.560055 227.125628 
L 504.9 222.3 
L 500.074372 217.639945 
L 495.08905 213.151141 
L 489.950107 208.839056 
L 484.663806 204.708945 
L 479.236586 200.765839 
L 473.67506 197.014542 
L 467.986004 193.459625 
L 462.176348 190.105419 
L 456.253171 186.95601 
L 450.22369 184.015235 
L 444.09525 181.286678 
L 437.875318 178.773663 
L 431.571472 176.47925 
L 425.191392 174.406237 
L 418.742852 172.557148 
" style="fill:none;stroke:#b0b0b0;stroke-linecap:square;stroke-width:0.8;"/>
     </g>
     <g id="text_9">
      <!-- 90° -->
      <g transform="translate(552.329123 352.120313)scale(0.1 -0.1)">
       <use xlink:href="#DejaVuSans-57"/>
       <use x="63.623047" xlink:href="#DejaVuSans-48"/>
       <use x="127.246094" xlink:href="#DejaVuSans-176"/>
      </g>
     </g>
    </g>
    <g id="xtick_10">
     <g id="line2d_10">
      <path clip-path="url(#pa7007c3de7)" d="M 415.169414 557.162522 
L 421.664596 557.106556 
L 428.222708 556.802989 
L 434.837197 556.244725 
L 441.500966 555.424666 
L 448.206339 554.33575 
L 454.94503 552.970984 
L 461.708107 551.323494 
L 468.485952 549.386573 
L 475.26824 547.15374 
L 482.0439 544.618805 
L 488.801097 541.775937 
L 495.527204 538.619748 
L 502.208796 535.145376 
L 508.831636 531.348583 
L 515.380679 527.225849 
L 521.840085 522.774485 
L 528.193241 517.992741 
L 534.4228 512.879922 
L 540.510734 507.436509 
L 546.4384 501.664273 
L 552.186629 495.566395 
L 557.735828 489.147575 
L 563.066105 482.414138 
L 568.157411 475.374126 
L 572.989698 468.037377 
L 577.543097 460.415585 
L 581.798111 452.522339 
L 585.735815 444.373137 
L 589.338073 435.985373 
L 592.587756 427.378292 
L 595.468953 418.572914 
L 597.967194 409.591927 
L 600.069642 400.459541 
L 601.765287 391.201322 
L 603.045108 381.843987 
L 603.902209 372.415176 
L 604.331934 362.943203 
L 604.331934 353.456797 
L 603.902209 343.984824 
L 603.045108 334.556013 
L 601.765287 325.198678 
L 600.069642 315.940459 
L 597.967194 306.808073 
L 595.468953 297.827086 
L 592.587756 289.021708 
L 589.338073 280.414627 
L 585.735815 272.026863 
L 581.798111 263.877661 
L 577.543097 255.984415 
L 572.989698 248.362623 
L 568.157411 241.025874 
L 563.066105 233.985862 
L 557.735828 227.252425 
L 552.186629 220.833605 
L 546.4384 214.735727 
L 540.510734 208.963491 
L 534.4228 203.520078 
L 528.193241 198.407259 
L 521.840085 193.625515 
L 515.380679 189.174151 
L 508.831636 185.051417 
L 502.208796 181.254624 
L 495.527204 177.780252 
L 488.801097 174.624063 
L 482.0439 171.781195 
L 475.26824 169.24626 
L 468.485952 167.013427 
L 461.708107 165.076506 
L 454.94503 163.429016 
L 448.206339 162.06425 
L 441.500966 160.975334 
L 434.837197 160.155275 
L 428.222708 159.597011 
L 421.664596 159.293444 
L 415.169414 159.237478 
" style="fill:none;stroke:#b0b0b0;stroke-linecap:square;stroke-width:0.8;"/>
     </g>
     <g id="text_10">
      <!-- 120° -->
      <g transform="translate(592.341955 352.120313)scale(0.1 -0.1)">
       <use xlink:href="#DejaVuSans-49"/>
       <use x="63.623047" xlink:href="#DejaVuSans-50"/>
       <use x="127.246094" xlink:href="#DejaVuSans-48"/>
       <use x="190.869141" xlink:href="#DejaVuSans-176"/>
      </g>
     </g>
    </g>
    <g id="xtick_11">
     <g id="line2d_11">
      <path clip-path="url(#pa7007c3de7)" d="M 397.23645 568.95973 
L 401.511576 570.88115 
L 405.920632 572.6506 
L 410.468761 574.259632 
L 415.161421 575.698986 
L 420.004378 576.958483 
L 425.003702 578.026909 
L 430.165753 578.891879 
L 435.497152 579.539692 
L 441.004742 579.955158 
L 446.695524 580.121416 
L 452.576573 580.019718 
L 458.654918 579.629207 
L 464.937378 578.926658 
L 471.430354 577.886212 
L 478.139544 576.479088 
L 485.069589 574.673286 
L 492.223607 572.433295 
L 499.602614 569.719822 
L 507.204791 566.48956 
L 515.024597 562.695047 
L 523.05167 558.284648 
L 531.269536 553.202748 
L 539.654093 547.390217 
L 548.171897 540.785283 
L 556.778297 533.324916 
L 565.415511 524.946876 
L 574.010808 515.592552 
L 582.475034 505.210698 
L 590.701811 493.762092 
L 598.567821 481.225025 
L 605.934615 467.601332 
L 612.652355 452.92244 
L 618.565745 437.254662 
L 623.522102 420.702769 
L 627.381095 403.410833 
L 630.0252 385.559502 
L 631.369532 367.359354 
L 631.369532 349.040646 
L 630.0252 330.840498 
L 627.381095 312.989167 
L 623.522102 295.697231 
L 618.565745 279.145338 
L 612.652355 263.47756 
L 605.934615 248.798668 
L 598.567821 235.174975 
L 590.701811 222.637908 
L 582.475034 211.189302 
L 574.010808 200.807448 
L 565.415511 191.453124 
L 556.778297 183.075084 
L 548.171897 175.614717 
L 539.654093 169.009783 
L 531.269536 163.197252 
L 523.05167 158.115352 
L 515.024597 153.704953 
L 507.204791 149.91044 
L 499.602614 146.680178 
L 492.223607 143.966705 
L 485.069589 141.726714 
L 478.139544 139.920912 
L 471.430354 138.513788 
L 464.937378 137.473342 
L 458.654918 136.770793 
L 452.576573 136.380282 
L 446.695524 136.278584 
L 441.004742 136.444842 
L 435.497152 136.860308 
L 430.165753 137.508121 
L 425.003702 138.373091 
L 420.004378 139.441517 
L 415.161421 140.701014 
L 410.468761 142.140368 
L 405.920632 143.7494 
L 401.511576 145.51885 
L 397.23645 147.44027 
" style="fill:none;stroke:#b0b0b0;stroke-linecap:square;stroke-width:0.8;"/>
     </g>
     <g id="text_11">
      <!-- 150° -->
      <g transform="translate(619.49489 352.120313)scale(0.1 -0.1)">
       <use xlink:href="#DejaVuSans-49"/>
       <use x="63.623047" xlink:href="#DejaVuSans-53"/>
       <use x="127.246094" xlink:href="#DejaVuSans-48"/>
       <use x="190.869141" xlink:href="#DejaVuSans-176"/>
      </g>
     </g>
    </g>
   </g>
   <g id="matplotlib.axis_2">
    <g id="ytick_1">
     <g id="line2d_12">
      <path clip-path="url(#pa7007c3de7)" d="M 369 573.833438 
L 364.168152 573.701517 
L 359.387775 573.308123 
L 354.709172 572.660257 
L 350.180372 571.769264 
L 345.846149 570.650369 
L 341.747198 569.322089 
L 337.919518 567.805543 
L 334.393996 566.123734 
L 331.196195 564.300822 
L 328.346341 562.361444 
L 325.859464 560.330102 
L 323.745672 558.230636 
L 322.010524 556.085808 
L 320.655462 553.916981 
L 319.678275 551.743895 
L 319.073576 549.584542 
L 318.833255 547.455105 
L 318.946922 545.369968 
L 319.402293 543.341769 
L 320.18555 541.381496 
L 321.28165 539.498604 
L 322.674591 537.701142 
L 324.347635 535.9959 
L 326.283497 534.388542 
L 328.464494 532.883751 
L 330.87267 531.485354 
L 333.489889 530.196445 
L 336.29791 529.019496 
L 339.278441 527.956459 
L 342.413182 527.008855 
L 345.683848 526.177851 
L 349.072189 525.464327 
L 352.559997 524.868938 
L 356.129109 524.392157 
L 359.761408 524.034319 
L 363.438812 523.795647 
L 367.143266 523.676279 
L 370.856734 523.676279 
L 374.561188 523.795647 
L 378.238592 524.034319 
L 381.870891 524.392157 
L 385.440003 524.868938 
L 388.927811 525.464327 
L 392.316152 526.177851 
L 395.586818 527.008855 
L 398.721559 527.956459 
L 401.70209 529.019496 
L 404.510111 530.196445 
L 407.12733 531.485354 
L 409.535506 532.883751 
L 411.716503 534.388542 
L 413.652365 535.9959 
L 415.325409 537.701142 
L 416.71835 539.498604 
L 417.81445 541.381496 
L 418.597707 543.341769 
L 419.053078 545.369968 
L 419.166745 547.455105 
L 418.926424 549.584542 
L 418.321725 551.743895 
L 417.344538 553.916981 
L 415.989476 556.085808 
L 414.254328 558.230636 
L 412.140536 560.330102 
L 409.653659 562.361444 
L 406.803805 564.300822 
L 403.606004 566.123734 
L 400.080482 567.805543 
L 396.252802 569.322089 
L 392.153851 570.650369 
L 387.819628 571.769264 
L 383.290828 572.660257 
L 378.612225 573.308123 
L 373.831848 573.701517 
L 369 573.833438 
" style="fill:none;stroke:#b0b0b0;stroke-linecap:square;stroke-width:0.8;"/>
     </g>
    </g>
    <g id="ytick_2">
     <g id="line2d_13">
      <path clip-path="url(#pa7007c3de7)" d="M 369 593.585705 
L 357.64807 593.174022 
L 346.493172 591.954649 
L 335.721751 589.973071 
L 325.500453 587.300234 
L 315.969347 584.026188 
L 307.238108 580.252765 
L 299.385149 576.086339 
L 292.459222 571.631523 
L 286.482766 566.986276 
L 281.45624 562.238614 
L 277.362749 557.4648 
L 274.172482 552.728777 
L 271.846634 548.082516 
L 270.340673 543.566957 
L 269.606917 539.21329 
L 269.596482 535.044365 
L 270.260669 531.076095 
L 271.551909 527.318762 
L 273.424357 523.778184 
L 275.834224 520.456716 
L 278.73992 517.354102 
L 282.102061 514.468164 
L 285.883397 511.795376 
L 290.048681 509.331308 
L 294.564504 507.070991 
L 299.399126 505.009189 
L 304.522292 503.140618 
L 309.905062 501.46011 
L 315.519644 499.962737 
L 321.339241 498.643906 
L 327.337905 497.499425 
L 333.490414 496.525554 
L 339.772141 495.719042 
L 346.158956 495.077152 
L 352.627113 494.597677 
L 359.153167 494.278955 
L 365.713876 494.119872 
L 372.286124 494.119872 
L 378.846833 494.278955 
L 385.372887 494.597677 
L 391.841044 495.077152 
L 398.227859 495.719042 
L 404.509586 496.525554 
L 410.662095 497.499425 
L 416.660759 498.643906 
L 422.480356 499.962737 
L 428.094938 501.46011 
L 433.477708 503.140618 
L 438.600874 505.009189 
L 443.435496 507.070991 
L 447.951319 509.331308 
L 452.116603 511.795376 
L 455.897939 514.468164 
L 459.26008 517.354102 
L 462.165776 520.456716 
L 464.575643 523.778184 
L 466.448091 527.318762 
L 467.739331 531.076095 
L 468.403518 535.044365 
L 468.393083 539.21329 
L 467.659327 543.566957 
L 466.153366 548.082516 
L 463.827518 552.728777 
L 460.637251 557.4648 
L 456.54376 562.238614 
L 451.517234 566.986276 
L 445.540778 571.631523 
L 438.614851 576.086339 
L 430.761892 580.252765 
L 422.030653 584.026188 
L 412.499547 587.300234 
L 402.278249 589.973071 
L 391.506828 591.954649 
L 380.35193 593.174022 
L 369 593.585705 
" style="fill:none;stroke:#b0b0b0;stroke-linecap:square;stroke-width:0.8;"/>
     </g>
    </g>
    <g id="ytick_3">
     <g id="line2d_14">
      <path clip-path="url(#pa7007c3de7)" d="M 369 609.310457 
L 348.076013 608.254086 
L 327.813072 605.170304 
L 308.792905 600.297079 
L 291.460483 593.977989 
L 276.10009 586.603099 
L 262.843048 578.555252 
L 251.696172 570.172569 
L 242.578068 561.729556 
L 235.353565 553.433364 
L 229.861249 545.429657 
L 225.932851 537.813027 
L 223.405417 530.638431 
L 222.127993 523.931679 
L 221.964549 517.698133 
L 222.794565 511.929492 
L 224.51229 506.608834 
L 227.025339 501.714234 
L 230.253043 497.221284 
L 234.124787 493.1048 
L 238.578467 489.339931 
L 243.55911 485.902859 
L 249.017672 482.771212 
L 254.910027 479.924278 
L 261.196102 477.343098 
L 267.839168 475.010467 
L 274.805239 472.910896 
L 282.062581 471.030532 
L 289.581307 469.357075 
L 297.333037 467.879681 
L 305.290618 466.588874 
L 313.427899 465.476456 
L 321.719528 464.535429 
L 330.1408 463.759925 
L 338.667515 463.145148 
L 347.275865 462.687319 
L 355.942328 462.383638 
L 364.643581 462.232258 
L 373.356419 462.232258 
L 382.057672 462.383638 
L 390.724135 462.687319 
L 399.332485 463.145148 
L 407.8592 463.759925 
L 416.280472 464.535429 
L 424.572101 465.476456 
L 432.709382 466.588874 
L 440.666963 467.879681 
L 448.418693 469.357075 
L 455.937419 471.030532 
L 463.194761 472.910896 
L 470.160832 475.010467 
L 476.803898 477.343098 
L 483.089973 479.924278 
L 488.982328 482.771212 
L 494.44089 485.902859 
L 499.421533 489.339931 
L 503.875213 493.1048 
L 507.746957 497.221284 
L 510.974661 501.714234 
L 513.48771 506.608834 
L 515.205435 511.929492 
L 516.035451 517.698133 
L 515.872007 523.931679 
L 514.594583 530.638431 
L 512.067149 537.813027 
L 508.138751 545.429657 
L 502.646435 553.433364 
L 495.421932 561.729556 
L 486.303828 570.172569 
L 475.156952 578.555252 
L 461.89991 586.603099 
L 446.539517 593.977989 
L 429.207095 600.297079 
L 410.186928 605.170304 
L 389.923987 608.254086 
L 369 609.310457 
" style="fill:none;stroke:#b0b0b0;stroke-linecap:square;stroke-width:0.8;"/>
     </g>
    </g>
    <g id="ytick_4">
     <g id="line2d_15">
      <path clip-path="url(#pa7007c3de7)" d="M 369 620.73864 
L 331.373271 617.812359 
L 296.38086 609.606098 
L 265.898631 597.556751 
L 240.744792 583.361718 
L 220.862551 568.476595 
L 205.696693 553.908333 
L 194.51695 540.237178 
L 186.608914 527.730578 
L 181.35586 516.459956 
L 178.257559 506.388073 
L 176.920738 497.425171 
L 177.040374 489.461727 
L 178.380569 482.386115 
L 180.758147 476.093295 
L 184.029634 470.48848 
L 188.081304 465.488128 
L 192.821713 461.019596 
L 198.176145 457.020198 
L 204.082483 453.43606 
L 210.488141 450.220965 
L 217.347779 447.335282 
L 224.621585 444.745013 
L 232.27398 442.420977 
L 240.272638 440.338102 
L 248.587743 438.474838 
L 257.191408 436.812656 
L 266.057245 435.335634 
L 275.160018 434.030106 
L 284.47538 432.884379 
L 293.979674 431.888486 
L 303.649766 431.033992 
L 313.462926 430.313827 
L 323.396729 429.722154 
L 333.428975 429.254261 
L 343.537637 428.906473 
L 353.700801 428.676091 
L 363.896639 428.56134 
L 374.103361 428.56134 
L 384.299199 428.676091 
L 394.462363 428.906473 
L 404.571025 429.254261 
L 414.603271 429.722154 
L 424.537074 430.313827 
L 434.350234 431.033992 
L 444.020326 431.888486 
L 453.52462 432.884379 
L 462.839982 434.030106 
L 471.942755 435.335634 
L 480.808592 436.812656 
L 489.412257 438.474838 
L 497.727362 440.338102 
L 505.72602 442.420977 
L 513.378415 444.745013 
L 520.652221 447.335282 
L 527.511859 450.220965 
L 533.917517 453.43606 
L 539.823855 457.020198 
L 545.178287 461.019596 
L 549.918696 465.488128 
L 553.970366 470.48848 
L 557.241853 476.093295 
L 559.619431 482.386115 
L 560.959626 489.461727 
L 561.079262 497.425171 
L 559.742441 506.388073 
L 556.64414 516.459956 
L 551.391086 527.730578 
L 543.48305 540.237178 
L 532.303307 553.908333 
L 517.137449 568.476595 
L 497.255208 583.361718 
L 472.101369 597.556751 
L 441.61914 609.606098 
L 406.626729 617.812359 
L 369 620.73864 
" style="fill:none;stroke:#b0b0b0;stroke-linecap:square;stroke-width:0.8;"/>
     </g>
    </g>
    <g id="ytick_5">
     <g id="line2d_16">
      <path clip-path="url(#pa7007c3de7)" d="M 369 627.674713 
L 288.740893 615.201879 
L 227.09914 586.193683 
L 187.103526 554.183093 
L 162.963252 526.07163 
L 148.79887 503.263682 
L 140.769083 485.140993 
L 136.628982 470.712789 
L 135.083491 459.106325 
L 135.368806 449.649207 
L 137.018738 441.843443 
L 139.737743 435.322824 
L 143.331077 429.816494 
L 147.665371 425.121909 
L 152.645697 421.085647 
L 158.201823 417.589952 
L 164.279738 414.54328 
L 170.836277 411.873602 
L 177.835646 409.52361 
L 185.247109 407.447239 
L 193.043432 405.607121 
L 201.199812 403.972685 
L 209.693129 402.518736 
L 218.501426 401.224374 
L 227.60353 400.072168 
L 236.978787 399.047506 
L 246.606871 398.138101 
L 256.467647 397.333595 
L 266.541074 396.625243 
L 276.807137 396.005669 
L 287.245804 395.468663 
L 297.836995 395.009026 
L 308.560567 394.622438 
L 319.396305 394.305362 
L 330.323927 394.054957 
L 341.323086 393.869022 
L 352.373385 393.745944 
L 363.454383 393.684667 
L 374.545617 393.684667 
L 385.626615 393.745944 
L 396.676914 393.869022 
L 407.676073 394.054957 
L 418.603695 394.305362 
L 429.439433 394.622438 
L 440.163005 395.009026 
L 450.754196 395.468663 
L 461.192863 396.005669 
L 471.458926 396.625243 
L 481.532353 397.333595 
L 491.393129 398.138101 
L 501.021213 399.047506 
L 510.39647 400.072168 
L 519.498574 401.224374 
L 528.306871 402.518736 
L 536.800188 403.972685 
L 544.956568 405.607121 
L 552.752891 407.447239 
L 560.164354 409.52361 
L 567.163723 411.873602 
L 573.720262 414.54328 
L 579.798177 417.589952 
L 585.354303 421.085647 
L 590.334629 425.121909 
L 594.668923 429.816494 
L 598.262257 435.322824 
L 600.981262 441.843443 
L 602.631194 449.649207 
L 602.916509 459.106325 
L 601.371018 470.712789 
L 597.230917 485.140993 
L 589.20113 503.263682 
L 575.036748 526.07163 
L 550.896474 554.183093 
L 510.90086 586.193683 
L 449.259107 615.201879 
L 369 627.674713 
" style="fill:none;stroke:#b0b0b0;stroke-linecap:square;stroke-width:0.8;"/>
     </g>
    </g>
    <g id="ytick_6">
     <g id="line2d_17">
      <path clip-path="url(#pa7007c3de7)" d="M 368.999999 358.2 
L 97.438415 358.2 
L 98.153241 358.2 
L 99.343224 358.2 
L 101.006277 358.2 
L 103.139482 358.2 
L 105.739097 358.2 
L 108.800561 358.2 
L 112.318503 358.2 
L 116.286751 358.2 
L 120.698345 358.2 
L 125.545544 358.2 
L 130.819844 358.2 
L 136.511994 358.2 
L 142.612007 358.2 
L 149.109181 358.2 
L 155.992118 358.2 
L 163.248744 358.2 
L 170.866327 358.2 
L 178.831504 358.2 
L 187.130301 358.2 
L 195.74816 358.2 
L 204.669961 358.2 
L 213.880052 358.2 
L 223.362277 358.2 
L 233.1 358.2 
L 243.076138 358.2 
L 253.273189 358.2 
L 263.673264 358.2 
L 274.258118 358.2 
L 285.009181 358.2 
L 295.907593 358.2 
L 306.934234 358.2 
L 318.069759 358.2 
L 329.294633 358.2 
L 340.589164 358.2 
L 351.933537 358.2 
L 363.30785 358.2 
L 374.69215 358.2 
L 386.066463 358.2 
L 397.410836 358.2 
L 408.705367 358.2 
L 419.930241 358.2 
L 431.065766 358.2 
L 442.092407 358.2 
L 452.990819 358.2 
L 463.741882 358.2 
L 474.326736 358.2 
L 484.726811 358.2 
L 494.923862 358.2 
L 504.9 358.2 
L 514.637723 358.2 
L 524.119948 358.2 
L 533.330039 358.2 
L 542.25184 358.2 
L 550.869699 358.2 
L 559.168496 358.2 
L 567.133673 358.2 
L 574.751256 358.2 
L 582.007882 358.2 
L 588.890819 358.2 
L 595.387993 358.2 
L 601.488006 358.2 
L 607.180156 358.2 
L 612.454456 358.2 
L 617.301655 358.2 
L 621.713249 358.2 
L 625.681497 358.2 
L 629.199439 358.2 
L 632.260903 358.2 
L 634.860518 358.2 
L 636.993723 358.2 
L 638.656776 358.2 
L 639.846759 358.2 
L 640.561585 358.2 
L 369.000001 358.2 
" style="fill:none;stroke:#b0b0b0;stroke-linecap:square;stroke-width:0.8;"/>
     </g>
    </g>
    <g id="ytick_7">
     <g id="line2d_18">
      <path clip-path="url(#pa7007c3de7)" d="M 369 88.725287 
L 288.740893 101.198121 
L 227.09914 130.206317 
L 187.103526 162.216907 
L 162.963252 190.32837 
L 148.79887 213.136318 
L 140.769083 231.259007 
L 136.628982 245.687211 
L 135.083491 257.293675 
L 135.368806 266.750793 
L 137.018738 274.556557 
L 139.737743 281.077176 
L 143.331077 286.583506 
L 147.665371 291.278091 
L 152.645697 295.314353 
L 158.201823 298.810048 
L 164.279738 301.85672 
L 170.836277 304.526398 
L 177.835646 306.87639 
L 185.247109 308.952761 
L 193.043432 310.792879 
L 201.199812 312.427315 
L 209.693129 313.881264 
L 218.501426 315.175626 
L 227.60353 316.327832 
L 236.978787 317.352494 
L 246.606871 318.261899 
L 256.467647 319.066405 
L 266.541074 319.774757 
L 276.807137 320.394331 
L 287.245804 320.931337 
L 297.836995 321.390974 
L 308.560567 321.777562 
L 319.396305 322.094638 
L 330.323927 322.345043 
L 341.323086 322.530978 
L 352.373385 322.654056 
L 363.454383 322.715333 
L 374.545617 322.715333 
L 385.626615 322.654056 
L 396.676914 322.530978 
L 407.676073 322.345043 
L 418.603695 322.094638 
L 429.439433 321.777562 
L 440.163005 321.390974 
L 450.754196 320.931337 
L 461.192863 320.394331 
L 471.458926 319.774757 
L 481.532353 319.066405 
L 491.393129 318.261899 
L 501.021213 317.352494 
L 510.39647 316.327832 
L 519.498574 315.175626 
L 528.306871 313.881264 
L 536.800188 312.427315 
L 544.956568 310.792879 
L 552.752891 308.952761 
L 560.164354 306.87639 
L 567.163723 304.526398 
L 573.720262 301.85672 
L 579.798177 298.810048 
L 585.354303 295.314353 
L 590.334629 291.278091 
L 594.668923 286.583506 
L 598.262257 281.077176 
L 600.981262 274.556557 
L 602.631194 266.750793 
L 602.916509 257.293675 
L 601.371018 245.687211 
L 597.230917 231.259007 
L 589.20113 213.136318 
L 575.036748 190.32837 
L 550.896474 162.216907 
L 510.90086 130.206317 
L 449.259107 101.198121 
L 369 88.725287 
" style="fill:none;stroke:#b0b0b0;stroke-linecap:square;stroke-width:0.8;"/>
     </g>
    </g>
    <g id="ytick_8">
     <g id="line2d_19">
      <path clip-path="url(#pa7007c3de7)" d="M 369 95.66136 
L 331.373271 98.587641 
L 296.38086 106.793902 
L 265.898631 118.843249 
L 240.744792 133.038282 
L 220.862551 147.923405 
L 205.696693 162.491667 
L 194.51695 176.162822 
L 186.608914 188.669422 
L 181.35586 199.940044 
L 178.257559 210.011927 
L 176.920738 218.974829 
L 177.040374 226.938273 
L 178.380569 234.013885 
L 180.758147 240.306705 
L 184.029634 245.91152 
L 188.081304 250.911872 
L 192.821713 255.380404 
L 198.176145 259.379802 
L 204.082483 262.96394 
L 210.488141 266.179035 
L 217.347779 269.064718 
L 224.621585 271.654987 
L 232.27398 273.979023 
L 240.272638 276.061898 
L 248.587743 277.925162 
L 257.191408 279.587344 
L 266.057245 281.064366 
L 275.160018 282.369894 
L 284.47538 283.515621 
L 293.979674 284.511514 
L 303.649766 285.366008 
L 313.462926 286.086173 
L 323.396729 286.677846 
L 333.428975 287.145739 
L 343.537637 287.493527 
L 353.700801 287.723909 
L 363.896639 287.83866 
L 374.103361 287.83866 
L 384.299199 287.723909 
L 394.462363 287.493527 
L 404.571025 287.145739 
L 414.603271 286.677846 
L 424.537074 286.086173 
L 434.350234 285.366008 
L 444.020326 284.511514 
L 453.52462 283.515621 
L 462.839982 282.369894 
L 471.942755 281.064366 
L 480.808592 279.587344 
L 489.412257 277.925162 
L 497.727362 276.061898 
L 505.72602 273.979023 
L 513.378415 271.654987 
L 520.652221 269.064718 
L 527.511859 266.179035 
L 533.917517 262.96394 
L 539.823855 259.379802 
L 545.178287 255.380404 
L 549.918696 250.911872 
L 553.970366 245.91152 
L 557.241853 240.306705 
L 559.619431 234.013885 
L 560.959626 226.938273 
L 561.079262 218.974829 
L 559.742441 210.011927 
L 556.64414 199.940044 
L 551.391086 188.669422 
L 543.48305 176.162822 
L 532.303307 162.491667 
L 517.137449 147.923405 
L 497.255208 133.038282 
L 472.101369 118.843249 
L 441.61914 106.793902 
L 406.626729 98.587641 
L 369 95.66136 
" style="fill:none;stroke:#b0b0b0;stroke-linecap:square;stroke-width:0.8;"/>
     </g>
    </g>
    <g id="ytick_9">
     <g id="line2d_20">
      <path clip-path="url(#pa7007c3de7)" d="M 369 107.089543 
L 348.076013 108.145914 
L 327.813072 111.229696 
L 308.792905 116.102921 
L 291.460483 122.422011 
L 276.10009 129.796901 
L 262.843048 137.844748 
L 251.696172 146.227431 
L 242.578068 154.670444 
L 235.353565 162.966636 
L 229.861249 170.970343 
L 225.932851 178.586973 
L 223.405417 185.761569 
L 222.127993 192.468321 
L 221.964549 198.701867 
L 222.794565 204.470508 
L 224.51229 209.791166 
L 227.025339 214.685766 
L 230.253043 219.178716 
L 234.124787 223.2952 
L 238.578467 227.060069 
L 243.55911 230.497141 
L 249.017672 233.628788 
L 254.910027 236.475722 
L 261.196102 239.056902 
L 267.839168 241.389533 
L 274.805239 243.489104 
L 282.062581 245.369468 
L 289.581307 247.042925 
L 297.333037 248.520319 
L 305.290618 249.811126 
L 313.427899 250.923544 
L 321.719528 251.864571 
L 330.1408 252.640075 
L 338.667515 253.254852 
L 347.275865 253.712681 
L 355.942328 254.016362 
L 364.643581 254.167742 
L 373.356419 254.167742 
L 382.057672 254.016362 
L 390.724135 253.712681 
L 399.332485 253.254852 
L 407.8592 252.640075 
L 416.280472 251.864571 
L 424.572101 250.923544 
L 432.709382 249.811126 
L 440.666963 248.520319 
L 448.418693 247.042925 
L 455.937419 245.369468 
L 463.194761 243.489104 
L 470.160832 241.389533 
L 476.803898 239.056902 
L 483.089973 236.475722 
L 488.982328 233.628788 
L 494.44089 230.497141 
L 499.421533 227.060069 
L 503.875213 223.2952 
L 507.746957 219.178716 
L 510.974661 214.685766 
L 513.48771 209.791166 
L 515.205435 204.470508 
L 516.035451 198.701867 
L 515.872007 192.468321 
L 514.594583 185.761569 
L 512.067149 178.586973 
L 508.138751 170.970343 
L 502.646435 162.966636 
L 495.421932 154.670444 
L 486.303828 146.227431 
L 475.156952 137.844748 
L 461.89991 129.796901 
L 446.539517 122.422011 
L 429.207095 116.102921 
L 410.186928 111.229696 
L 389.923987 108.145914 
L 369 107.089543 
" style="fill:none;stroke:#b0b0b0;stroke-linecap:square;stroke-width:0.8;"/>
     </g>
    </g>
    <g id="ytick_10">
     <g id="line2d_21">
      <path clip-path="url(#pa7007c3de7)" d="M 369 122.814295 
L 357.64807 123.225978 
L 346.493172 124.445351 
L 335.721751 126.426929 
L 325.500453 129.099766 
L 315.969347 132.373812 
L 307.238108 136.147235 
L 299.385149 140.313661 
L 292.459222 144.768477 
L 286.482766 149.413724 
L 281.45624 154.161386 
L 277.362749 158.9352 
L 274.172482 163.671223 
L 271.846634 168.317484 
L 270.340673 172.833043 
L 269.606917 177.18671 
L 269.596482 181.355635 
L 270.260669 185.323905 
L 271.551909 189.081238 
L 273.424357 192.621816 
L 275.834224 195.943284 
L 278.73992 199.045898 
L 282.102061 201.931836 
L 285.883397 204.604624 
L 290.048681 207.068692 
L 294.564504 209.329009 
L 299.399126 211.390811 
L 304.522292 213.259382 
L 309.905062 214.93989 
L 315.519644 216.437263 
L 321.339241 217.756094 
L 327.337905 218.900575 
L 333.490414 219.874446 
L 339.772141 220.680958 
L 346.158956 221.322848 
L 352.627113 221.802323 
L 359.153167 222.121045 
L 365.713876 222.280128 
L 372.286124 222.280128 
L 378.846833 222.121045 
L 385.372887 221.802323 
L 391.841044 221.322848 
L 398.227859 220.680958 
L 404.509586 219.874446 
L 410.662095 218.900575 
L 416.660759 217.756094 
L 422.480356 216.437263 
L 428.094938 214.93989 
L 433.477708 213.259382 
L 438.600874 211.390811 
L 443.435496 209.329009 
L 447.951319 207.068692 
L 452.116603 204.604624 
L 455.897939 201.931836 
L 459.26008 199.045898 
L 462.165776 195.943284 
L 464.575643 192.621816 
L 466.448091 189.081238 
L 467.739331 185.323905 
L 468.403518 181.355635 
L 468.393083 177.18671 
L 467.659327 172.833043 
L 466.153366 168.317484 
L 463.827518 163.671223 
L 460.637251 158.9352 
L 456.54376 154.161386 
L 451.517234 149.413724 
L 445.540778 144.768477 
L 438.614851 140.313661 
L 430.761892 136.147235 
L 422.030653 132.373812 
L 412.499547 129.099766 
L 402.278249 126.426929 
L 391.506828 124.445351 
L 380.35193 123.225978 
L 369 122.814295 
" style="fill:none;stroke:#b0b0b0;stroke-linecap:square;stroke-width:0.8;"/>
     </g>
    </g>
    <g id="ytick_11">
     <g id="line2d_22">
      <path clip-path="url(#pa7007c3de7)" d="M 369 142.566562 
L 364.168152 142.698483 
L 359.387775 143.091877 
L 354.709172 143.739743 
L 350.180372 144.630736 
L 345.846149 145.749631 
L 341.747198 147.077911 
L 337.919518 148.594457 
L 334.393996 150.276266 
L 331.196195 152.099178 
L 328.346341 154.038556 
L 325.859464 156.069898 
L 323.745672 158.169364 
L 322.010524 160.314192 
L 320.655462 162.483019 
L 319.678275 164.656105 
L 319.073576 166.815458 
L 318.833255 168.944895 
L 318.946922 171.030032 
L 319.402293 173.058231 
L 320.18555 175.018504 
L 321.28165 176.901396 
L 322.674591 178.698858 
L 324.347635 180.4041 
L 326.283497 182.011458 
L 328.464494 183.516249 
L 330.87267 184.914646 
L 333.489889 186.203555 
L 336.29791 187.380504 
L 339.278441 188.443541 
L 342.413182 189.391145 
L 345.683848 190.222149 
L 349.072189 190.935673 
L 352.559997 191.531062 
L 356.129109 192.007843 
L 359.761408 192.365681 
L 363.438812 192.604353 
L 367.143266 192.723721 
L 370.856734 192.723721 
L 374.561188 192.604353 
L 378.238592 192.365681 
L 381.870891 192.007843 
L 385.440003 191.531062 
L 388.927811 190.935673 
L 392.316152 190.222149 
L 395.586818 189.391145 
L 398.721559 188.443541 
L 401.70209 187.380504 
L 404.510111 186.203555 
L 407.12733 184.914646 
L 409.535506 183.516249 
L 411.716503 182.011458 
L 413.652365 180.4041 
L 415.325409 178.698858 
L 416.71835 176.901396 
L 417.81445 175.018504 
L 418.597707 173.058231 
L 419.053078 171.030032 
L 419.166745 168.944895 
L 418.926424 166.815458 
L 418.321725 164.656105 
L 417.344538 162.483019 
L 415.989476 160.314192 
L 414.254328 158.169364 
L 412.140536 156.069898 
L 409.653659 154.038556 
L 406.803805 152.099178 
L 403.606004 150.276266 
L 400.080482 148.594457 
L 396.252802 147.077911 
L 392.153851 145.749631 
L 387.819628 144.630736 
L 383.290828 143.739743 
L 378.612225 143.091877 
L 373.831848 142.698483 
L 369 142.566562 
" style="fill:none;stroke:#b0b0b0;stroke-linecap:square;stroke-width:0.8;"/>
     </g>
    </g>
   </g>
   <g id="patch_3">
    <path d="M 369 630 
C 441.082203 630 510.221809 601.361437 561.191623 550.391623 
C 612.161437 499.421809 640.8 430.282203 640.8 358.2 
C 640.8 286.117797 612.161437 216.978191 561.191623 166.008377 
C 510.221809 115.038563 441.082203 86.4 369 86.4 
C 296.917797 86.4 227.778191 115.038563 176.808377 166.008377 
C 125.838563 216.978191 97.2 286.117797 97.2 358.2 
C 97.2 430.282203 125.838563 499.421809 176.808377 550.391623 
C 227.778191 601.361437 296.917797 630 369 630 
z
" style="fill:none;stroke:#000000;stroke-linecap:square;stroke-linejoin:miter;stroke-width:0.8;"/>
   </g>
   <g id="text_12">
    <!-- Lambert -->
    <defs>
     <path d="M 9.8125 72.90625 
L 19.671875 72.90625 
L 19.671875 8.296875 
L 55.171875 8.296875 
L 55.171875 0 
L 9.8125 0 
z
" id="DejaVuSans-76"/>
     <path d="M 34.28125 27.484375 
Q 23.390625 27.484375 19.1875 25 
Q 14.984375 22.515625 14.984375 16.5 
Q 14.984375 11.71875 18.140625 8.90625 
Q 21.296875 6.109375 26.703125 6.109375 
Q 34.1875 6.109375 38.703125 11.40625 
Q 43.21875 16.703125 43.21875 25.484375 
L 43.21875 27.484375 
z
M 52.203125 31.203125 
L 52.203125 0 
L 43.21875 0 
L 43.21875 8.296875 
Q 40.140625 3.328125 35.546875 0.953125 
Q 30.953125 -1.421875 24.3125 -1.421875 
Q 15.921875 -1.421875 10.953125 3.296875 
Q 6 8.015625 6 15.921875 
Q 6 25.140625 12.171875 29.828125 
Q 18.359375 34.515625 30.609375 34.515625 
L 43.21875 34.515625 
L 43.21875 35.40625 
Q 43.21875 41.609375 39.140625 45 
Q 35.0625 48.390625 27.6875 48.390625 
Q 23 48.390625 18.546875 47.265625 
Q 14.109375 46.140625 10.015625 43.890625 
L 10.015625 52.203125 
Q 14.9375 54.109375 19.578125 55.046875 
Q 24.21875 56 28.609375 56 
Q 40.484375 56 46.34375 49.84375 
Q 52.203125 43.703125 52.203125 31.203125 
z
" id="DejaVuSans-97"/>
     <path d="M 52 44.1875 
Q 55.375 50.25 60.0625 53.125 
Q 64.75 56 71.09375 56 
Q 79.640625 56 84.28125 50.015625 
Q 88.921875 44.046875 88.921875 33.015625 
L 88.921875 0 
L 79.890625 0 
L 79.890625 32.71875 
Q 79.890625 40.578125 77.09375 44.375 
Q 74.3125 48.1875 68.609375 48.1875 
Q 61.625 48.1875 57.5625 43.546875 
Q 53.515625 38.921875 53.515625 30.90625 
L 53.515625 0 
L 44.484375 0 
L 44.484375 32.71875 
Q 44.484375 40.625 41.703125 44.40625 
Q 38.921875 48.1875 33.109375 48.1875 
Q 26.21875 48.1875 22.15625 43.53125 
Q 18.109375 38.875 18.109375 30.90625 
L 18.109375 0 
L 9.078125 0 
L 9.078125 54.6875 
L 18.109375 54.6875 
L 18.109375 46.1875 
Q 21.1875 51.21875 25.484375 53.609375 
Q 29.78125 56 35.6875 56 
Q 41.65625 56 45.828125 52.96875 
Q 50 49.953125 52 44.1875 
z
" id="DejaVuSans-109"/>
     <path d="M 48.6875 27.296875 
Q 48.6875 37.203125 44.609375 42.84375 
Q 40.53125 48.484375 33.40625 48.484375 
Q 26.265625 48.484375 22.1875 42.84375 
Q 18.109375 37.203125 18.109375 27.296875 
Q 18.109375 17.390625 22.1875 11.75 
Q 26.265625 6.109375 33.40625 6.109375 
Q 40.53125 6.109375 44.609375 11.75 
Q 48.6875 17.390625 48.6875 27.296875 
z
M 18.109375 46.390625 
Q 20.953125 51.265625 25.265625 53.625 
Q 29.59375 56 35.59375 56 
Q 45.5625 56 51.78125 48.09375 
Q 58.015625 40.1875 58.015625 27.296875 
Q 58.015625 14.40625 51.78125 6.484375 
Q 45.5625 -1.421875 35.59375 -1.421875 
Q 29.59375 -1.421875 25.265625 0.953125 
Q 20.953125 3.328125 18.109375 8.203125 
L 18.109375 0 
L 9.078125 0 
L 9.078125 75.984375 
L 18.109375 75.984375 
z
" id="DejaVuSans-98"/>
     <path d="M 56.203125 29.59375 
L 56.203125 25.203125 
L 14.890625 25.203125 
Q 15.484375 15.921875 20.484375 11.0625 
Q 25.484375 6.203125 34.421875 6.203125 
Q 39.59375 6.203125 44.453125 7.46875 
Q 49.3125 8.734375 54.109375 11.28125 
L 54.109375 2.78125 
Q 49.265625 0.734375 44.1875 -0.34375 
Q 39.109375 -1.421875 33.890625 -1.421875 
Q 20.796875 -1.421875 13.15625 6.1875 
Q 5.515625 13.8125 5.515625 26.8125 
Q 5.515625 40.234375 12.765625 48.109375 
Q 20.015625 56 32.328125 56 
Q 43.359375 56 49.78125 48.890625 
Q 56.203125 41.796875 56.203125 29.59375 
z
M 47.21875 32.234375 
Q 47.125 39.59375 43.09375 43.984375 
Q 39.0625 48.390625 32.421875 48.390625 
Q 24.90625 48.390625 20.390625 44.140625 
Q 15.875 39.890625 15.1875 32.171875 
z
" id="DejaVuSans-101"/>
     <path d="M 41.109375 46.296875 
Q 39.59375 47.171875 37.8125 47.578125 
Q 36.03125 48 33.890625 48 
Q 26.265625 48 22.1875 43.046875 
Q 18.109375 38.09375 18.109375 28.8125 
L 18.109375 0 
L 9.078125 0 
L 9.078125 54.6875 
L 18.109375 54.6875 
L 18.109375 46.1875 
Q 20.953125 51.171875 25.484375 53.578125 
Q 30.03125 56 36.53125 56 
Q 37.453125 56 38.578125 55.875 
Q 39.703125 55.765625 41.0625 55.515625 
z
" id="DejaVuSans-114"/>
     <path d="M 18.3125 70.21875 
L 18.3125 54.6875 
L 36.8125 54.6875 
L 36.8125 47.703125 
L 18.3125 47.703125 
L 18.3125 18.015625 
Q 18.3125 11.328125 20.140625 9.421875 
Q 21.96875 7.515625 27.59375 7.515625 
L 36.8125 7.515625 
L 36.8125 0 
L 27.59375 0 
Q 17.1875 0 13.234375 3.875 
Q 9.28125 7.765625 9.28125 18.015625 
L 9.28125 47.703125 
L 2.6875 47.703125 
L 2.6875 54.6875 
L 9.28125 54.6875 
L 9.28125 70.21875 
z
" id="DejaVuSans-116"/>
    </defs>
    <g transform="translate(343.815937 80.4)scale(0.12 -0.12)">
     <use xlink:href="#DejaVuSans-76"/>
     <use x="55.712891" xlink:href="#DejaVuSans-97"/>
     <use x="116.992188" xlink:href="#DejaVuSans-109"/>
     <use x="214.404297" xlink:href="#DejaVuSans-98"/>
     <use x="277.880859" xlink:href="#DejaVuSans-101"/>
     <use x="339.404297" xlink:href="#DejaVuSans-114"/>
     <use x="380.517578" xlink:href="#DejaVuSans-116"/>
    </g>
   </g>
  </g>
 </g>
 <defs>
  <clipPath id="pa7007c3de7">
   <path d="M 369 630 
C 441.082203 630 510.221809 601.361437 561.191623 550.391623 
C 612.161437 499.421809 640.8 430.282203 640.8 358.2 
C 640.8 286.117797 612.161437 216.978191 561.191623 166.008377 
C 510.221809 115.038563 441.082203 86.4 369 86.4 
C 296.917797 86.4 227.778191 115.038563 176.808377 166.008377 
C 125.838563 216.978191 97.2 286.117797 97.2 358.2 
C 97.2 430.282203 125.838563 499.421809 176.808377 550.391623 
C 227.778191 601.361437 296.917797 630 369 630 
z
"/>
  </clipPath>
 </defs>
</svg>
